<?xml version="1.0"?>
<svg version="1.1" xmlns="http://www.w3.org/2000/svg" width="400px" height="200px" style="border: dashed 2px #aaa"><path fill="#" d="M172,84.4140625q0-0.546875,0.76171875-0.83984375t0.99609375-0.29296875l1.4453125-0.234375q1.4453125-0.234375,2.9296875-0.41015625t2.890625-0.33203125q4.9609375-0.625,9.921875-1.23046875t10-0.60546875q0.390625,0,1.07421875,0.0390625t1.3671875,0.21484375t1.171875,0.48828125t0.48828125,0.859375q0,0.390625-0.37109375,0.68359375t-0.87890625,0.44921875t-1.03515625,0.1953125t-0.83984375,0.0390625l-0.68359375,0t-0.68359375-0.15625q-2.0703125,0-4.08203125,0.1953125t-4.08203125,0.3515625q0.546875,0.625,0.5859375,1.7578125t0.078125,1.953125q0,13.828125,0.1953125,27.5t0.3515625,27.6171875l0,0.078125q-1.2890625,1.1328125-2.20703125,1.4453125t-1.85546875,0.3125q-0.8984375,0-1.81640625-0.33203125t-2.20703125-1.42578125l0-0.078125l0.3125-30.6640625q0-3.046875-0.078125-6.71875t-0.078125-7.44140625t0.1171875-7.28515625t0.625-6.1328125q-2.3046875,0.234375-4.8828125,0.703125q-2.2265625,0.390625-4.2578125,0.390625l-0.703125,0q-0.15625,0-0.91796875,0.0390625t-1.5625-0.0390625t-1.4453125-0.3125t-0.64453125-0.78125z"/><path fill="#" d="M197,90.2587890625q0-0.341796875,0.47607421875-0.52490234375t0.62255859375-0.18310546875l0.9033203125-0.146484375q0.9033203125-0.146484375,1.8310546875-0.25634765625t1.806640625-0.20751953125q3.1005859375-0.390625,6.201171875-0.76904296875t6.25-0.37841796875q0.244140625,0,0.67138671875,0.0244140625t0.8544921875,0.13427734375t0.732421875,0.30517578125t0.30517578125,0.537109375q0,0.244140625-0.23193359375,0.42724609375t-0.54931640625,0.28076171875t-0.64697265625,0.1220703125t-0.52490234375,0.0244140625l-0.42724609375,0t-0.42724609375-0.09765625q-1.2939453125,0-2.55126953125,0.1220703125t-2.55126953125,0.2197265625q0.341796875,0.390625,0.3662109375,1.0986328125t0.048828125,1.220703125q0,8.642578125,0.1220703125,17.1875t0.2197265625,17.2607421875l0,0.048828125q-0.8056640625,0.7080078125-1.37939453125,0.9033203125t-1.15966796875,0.1953125q-0.5615234375,0-1.13525390625-0.20751953125t-1.37939453125-0.89111328125l0-0.048828125l0.1953125-19.1650390625q0-1.904296875-0.048828125-4.19921875t-0.048828125-4.65087890625t0.0732421875-4.55322265625t0.390625-3.8330078125q-1.4404296875,0.146484375-3.0517578125,0.439453125q-1.3916015625,0.244140625-2.6611328125,0.244140625l-0.439453125,0q-0.09765625,0-0.57373046875,0.0244140625t-0.9765625-0.0244140625t-0.9033203125-0.1953125t-0.40283203125-0.48828125z"/></svg>
