<svg xmlns="http://www.w3.org/2000/svg"  viewBox="0 0 100 100" width="100px" height="100px"><path d="M 47.990234 5.390625 A 2.0002 2.0002 0 0 0 46.191406 6.3847656 L 41.080078 15.173828 L 27.59375 6.8457031 A 2.0002 2.0002 0 0 0 24.591797 8.984375 L 26.632812 18.128906 L 15.419922 16.804688 A 2.0002 2.0002 0 0 0 13.443359 19.773438 L 17.978516 27.822266 L 10.158203 31.451172 A 2.0002 2.0002 0 0 0 10.033203 35.017578 L 16.521484 38.597656 L 12.533203 45.697266 A 2.0002 2.0002 0 0 0 14.541016 48.660156 L 19.410156 48.005859 L 19.759766 54.488281 A 2.0002 2.0002 0 0 0 21.34375 56.337891 L 22.009766 56.476562 L 22.007812 56.6875 C 21.515235 56.958238 21.005153 57.210037 20.5 57.732422 C 19.117028 59.16257 18.131409 61.776265 18.867188 65.263672 C 19.613063 68.798939 21.669465 70.97721 23.505859 72.089844 C 24.21721 72.520836 24.84283 72.71979 25.433594 72.916016 C 25.796854 75.755444 27.238192 82.063495 32.960938 86.734375 C 40.012295 92.489663 45.76776 95.154898 50.867188 94.992188 C 53.999181 94.892247 57.691647 93.029367 61.447266 90.824219 C 65.202885 88.61907 68.634104 86.212544 70.361328 83.787109 C 71.927946 81.587983 72.837085 78.763024 73.462891 76.419922 C 73.914467 74.729158 74.00544 74.045441 74.125 73.367188 C 76.298458 72.425156 80.754738 69.835975 81.457031 64.228516 C 82.019237 59.739375 79.881463 57.252192 78.697266 56.080078 L 79.691406 55.820312 A 2.0002 2.0002 0 0 0 81.183594 53.929688 L 81.289062 49.246094 L 85.998047 49.537109 A 2.0002 2.0002 0 0 0 87.652344 46.253906 L 82.007812 39.53125 L 89.664062 35.257812 A 2.0002 2.0002 0 0 0 89.544922 31.703125 L 78.677734 26.554688 L 84.357422 16.486328 A 2.0002 2.0002 0 0 0 82.097656 13.572266 L 69.244141 17.027344 L 67.923828 7.2734375 A 2.0002 2.0002 0 0 0 64.515625 6.1386719 L 55.925781 14.867188 L 49.529297 6.2011719 A 2.0002 2.0002 0 0 0 47.990234 5.390625 z M 48.117188 11.025391 L 50.816406 14.679688 L 49.695312 15.759766 A 1.0001 1.0001 0 1 0 51.082031 17.199219 L 52.013672 16.302734 L 54.099609 19.126953 A 2.0002 2.0002 0 0 0 57.134766 19.341797 L 64.505859 11.849609 L 65.585938 19.816406 A 2.0002 2.0002 0 0 0 68.085938 21.478516 L 69.746094 21.033203 L 69.736328 22.207031 A 1.0001 1.0001 0 1 0 71.736328 22.224609 L 71.75 20.494141 L 72.935547 20.173828 L 73.046875 21.158203 A 1.0003546 1.0003546 0 1 0 75.035156 20.935547 L 74.888672 19.650391 L 78.533203 18.669922 L 74.138672 26.460938 A 2.0002 2.0002 0 0 0 75.023438 29.25 L 84.324219 33.65625 L 77.943359 37.216797 A 2.0002 2.0002 0 0 0 77.386719 40.25 L 81.591797 45.255859 L 79.458984 45.125 A 2.0002 2.0002 0 0 0 78.724609 45.21875 C 76.406014 43.141924 73.672811 41.306147 70.513672 39.71875 L 72.251953 37.542969 A 1.0001 1.0001 0 0 0 71.4375 35.908203 A 1.0001 1.0001 0 0 0 70.6875 36.294922 L 68.660156 38.835938 C 68.620907 38.818294 68.58429 38.798824 68.544922 38.78125 A 1.0001 1.0001 0 0 0 68.130859 38.695312 L 67.361328 38.701172 L 68.375 36.621094 A 1.0001 1.0001 0 0 0 67.419922 35.171875 A 1.0001 1.0001 0 0 0 66.576172 35.744141 L 65.128906 38.714844 L 61.269531 38.742188 A 1.0001 1.0001 0 0 0 61.003906 38.703125 A 1.0001 1.0001 0 0 0 60.716797 38.746094 L 47.785156 38.833984 L 48.755859 37.548828 A 1.0001 1.0001 0 0 0 47.998047 35.935547 A 1.0001 1.0001 0 0 0 47.160156 36.34375 L 45.263672 38.851562 L 42.623047 38.869141 L 43.763672 37.330078 A 1.0001 1.0001 0 0 0 42.992188 35.724609 A 1.0001 1.0001 0 0 0 42.158203 36.138672 L 40.121094 38.886719 L 37.972656 38.900391 L 39.443359 36.453125 A 1.0001 1.0001 0 0 0 38.619141 34.925781 A 1.0001 1.0001 0 0 0 37.728516 35.423828 L 35.630859 38.916016 L 34.607422 38.923828 L 35.626953 35.589844 A 1.0001 1.0001 0 0 0 34.65625 34.285156 A 1.0001 1.0001 0 0 0 33.712891 35.005859 L 32.496094 38.988281 A 1.0001 1.0001 0 0 0 32.433594 39.009766 C 31.563837 39.365547 30.932659 39.650948 30.185547 39.970703 L 29.867188 37.6875 A 1.0001 1.0001 0 0 0 28.820312 36.8125 A 1.0001 1.0001 0 0 0 27.886719 37.964844 L 28.28125 40.785156 C 27.837448 40.983745 27.480676 41.156985 27.083984 41.341797 L 26.382812 39.183594 A 1.0001 1.0001 0 0 0 25.398438 38.478516 A 1.0001 1.0001 0 0 0 24.480469 39.800781 L 25.265625 42.214844 C 23.983302 42.859508 22.959028 43.429266 22.15625 43.935547 A 2.0002 2.0002 0 0 0 21.023438 43.753906 L 17.982422 44.162109 L 20.994141 38.798828 A 2.0002 2.0002 0 0 0 20.216797 36.068359 L 15.417969 33.419922 L 21.625 30.541016 A 2.0002 2.0002 0 0 0 22.527344 27.744141 L 18.861328 21.240234 L 22.628906 21.685547 L 22.552734 22.240234 A 1.0007294 1.0007294 0 1 0 24.535156 22.515625 L 24.617188 21.919922 L 25.716797 22.050781 L 25.494141 23.318359 A 1.0003975 1.0003975 0 0 0 27.464844 23.664062 L 27.707031 22.285156 L 28.964844 22.433594 A 2.0002 2.0002 0 0 0 31.152344 20.011719 L 29.529297 12.742188 L 34.833984 16.017578 L 34.285156 17.144531 A 1.0006034 1.0006034 0 0 0 36.083984 18.021484 L 36.544922 17.074219 L 37.660156 17.763672 L 36.947266 19.455078 A 1.0004596 1.0004596 0 0 0 38.791016 20.232422 L 39.382812 18.828125 L 40.724609 19.65625 A 2.0002 2.0002 0 0 0 43.503906 18.958984 L 48.117188 11.025391 z M 58.962891 23.851562 C 58.826813 23.875266 58.693562 23.926359 58.570312 24.005859 C 58.077313 24.323859 57.935906 24.981609 58.253906 25.474609 C 58.571906 25.967609 59.229656 26.110969 59.722656 25.792969 C 60.215656 25.474969 60.357062 24.816266 60.039062 24.322266 C 59.800563 23.952516 59.371125 23.780453 58.962891 23.851562 z M 65.007812 28.861328 C 64.871734 28.885031 64.736531 28.936125 64.613281 29.015625 C 64.120281 29.333625 63.978875 29.991375 64.296875 30.484375 C 64.614875 30.977375 65.274578 31.120734 65.767578 30.802734 C 66.260578 30.484734 66.401984 29.826031 66.083984 29.332031 C 65.845484 28.962281 65.416047 28.790219 65.007812 28.861328 z M 54.285156 28.955078 C 54.149078 28.978781 54.015828 29.029875 53.892578 29.109375 C 53.399578 29.427375 53.258172 30.085125 53.576172 30.578125 C 53.894172 31.071125 54.553875 31.214484 55.046875 30.896484 C 55.539875 30.578484 55.680281 29.918781 55.363281 29.425781 C 55.124781 29.056031 54.693391 28.883969 54.285156 28.955078 z M 67.892578 40.697266 C 71.654686 42.395407 74.805895 44.403713 77.380859 46.703125 A 2.0002 2.0002 0 0 0 77.335938 47.076172 L 77.21875 52.333984 L 76.048828 52.640625 A 2.0002 2.0002 0 0 0 75.240234 53.074219 L 64.480469 53.083984 C 67.269673 48.853247 66.887053 45.25814 65.53125 42.847656 C 65.054019 41.999187 64.476573 41.302983 63.908203 40.724609 L 67.892578 40.697266 z M 60.791016 40.746094 C 61.331381 41.083456 62.825198 42.114468 63.789062 43.828125 C 64.948636 45.889731 65.421192 48.778072 62.013672 53.085938 L 37.099609 53.109375 C 33.867124 48.914236 34.343215 46.083557 35.484375 44.054688 C 36.557909 42.146049 38.287298 41.084341 38.609375 40.896484 L 40.347656 40.884766 A 1.0001 1.0001 0 0 0 40.871094 40.880859 L 60.791016 40.746094 z M 35.458984 40.917969 C 34.861346 41.485461 34.247289 42.176196 33.742188 43.074219 C 32.407607 45.446971 32.010188 48.966606 34.658203 53.111328 L 25.005859 53.121094 A 2.0002 2.0002 0 0 0 24.431641 52.900391 L 23.669922 52.740234 L 23.287109 45.628906 A 2.0002 2.0002 0 0 0 23.283203 45.589844 C 25.045564 44.489076 27.792015 43.083561 33.029297 40.933594 L 35.458984 40.917969 z M 55.894531 41.609375 A 1.0001 1.0001 0 0 0 55.443359 41.724609 L 53.355469 42.792969 C 53.103471 42.638783 53.052665 42.548216 52.578125 42.396484 C 51.694596 42.11398 50.413299 41.956284 48.851562 42.353516 C 46.950205 42.837211 45.352261 44.648865 45.183594 46.814453 L 43.169922 50.166016 A 1.0001 1.0001 0 0 0 44.03125 51.681641 L 49.117188 51.667969 A 1.0001 1.0001 0 0 0 49.320312 51.650391 C 50.839302 51.984595 52.614453 51.902959 53.755859 50.619141 C 54.78047 49.466692 54.857389 47.977495 54.238281 47.009766 C 53.619174 46.042036 52.546043 45.508384 51.417969 45.595703 C 50.493892 45.667183 49.805344 46.030461 49.386719 46.412109 C 48.968093 46.793757 48.769531 47.267578 48.769531 47.267578 A 1.0001 1.0001 0 1 0 50.634766 47.988281 C 50.634766 47.988281 50.615255 47.999235 50.734375 47.890625 C 50.853499 47.782023 51.061343 47.629365 51.572266 47.589844 C 51.878192 47.566164 52.371544 47.80162 52.554688 48.087891 C 52.737829 48.374161 52.854155 48.622465 52.259766 49.291016 C 51.822405 49.782945 50.7622 49.946526 49.626953 49.671875 C 48.491706 49.397224 47.499525 48.587693 47.410156 48.373047 C 46.600177 46.425848 48.033329 44.626333 49.34375 44.292969 C 50.538014 43.989203 51.398779 44.120454 51.96875 44.302734 C 52.538721 44.48498 52.740234 44.667969 52.740234 44.667969 A 1.0001 1.0001 0 0 0 53.837891 44.792969 L 56.353516 43.505859 A 1.0001 1.0001 0 0 0 55.894531 41.609375 z M 45.822266 49.634766 C 45.832105 49.650101 45.845389 49.662601 45.855469 49.677734 L 45.796875 49.677734 L 45.822266 49.634766 z M 74.546875 55.074219 L 74.517578 56.517578 A 2.0002 2.0002 0 0 0 75.314453 58.15625 C 75.314453 58.15625 77.949938 60.046153 77.488281 63.732422 C 76.874732 68.631337 71.875 69.955078 71.875 69.955078 A 2.0002 2.0002 0 0 0 70.427734 71.578125 C 70.427734 71.578125 70.356005 71.971606 70.308594 72.236328 L 64.679688 70.230469 A 1.0001 1.0001 0 0 0 64.289062 70.169922 A 1.0001 1.0001 0 0 0 64.009766 72.115234 L 69.888672 74.208984 C 69.79997 74.585127 69.709938 74.968272 69.597656 75.388672 C 69.338627 76.358515 68.998122 77.410401 68.617188 78.40625 L 64.201172 75.869141 A 1.0001 1.0001 0 0 0 63.726562 75.728516 A 1.0001 1.0001 0 0 0 63.205078 77.603516 L 67.818359 80.253906 C 67.587125 80.710145 67.347597 81.122217 67.103516 81.464844 A 2.0002 2.0002 0 0 0 67.103516 81.466797 C 66.737586 81.98065 65.814499 82.824221 64.650391 83.759766 L 62.333984 81.009766 A 1.0001 1.0001 0 0 0 61.544922 80.642578 A 1.0001 1.0001 0 0 0 60.804688 82.296875 L 63.052734 84.966797 C 61.923141 85.787538 60.704688 86.621784 59.421875 87.375 C 55.930744 89.424852 51.931287 90.956075 50.738281 90.994141 C 49.660429 91.028532 48.429799 90.83655 47.076172 90.441406 L 47.681641 89.527344 A 1.0001 1.0001 0 0 0 46.828125 87.962891 A 1.0001 1.0001 0 0 0 46.015625 88.421875 L 45.134766 89.75 C 44.916856 89.659606 44.70653 89.583705 44.482422 89.482422 L 45.214844 88.474609 A 1.0001 1.0001 0 0 0 44.427734 86.875 A 1.0001 1.0001 0 0 0 43.597656 87.298828 L 42.671875 88.572266 C 42.298292 88.369264 41.910372 88.139668 41.521484 87.908203 L 42.199219 87.126953 A 1.0001 1.0001 0 0 0 41.451172 85.462891 A 1.0001 1.0001 0 0 0 40.6875 85.818359 L 39.806641 86.833984 C 38.719177 86.109621 37.570614 85.263611 36.373047 84.320312 L 38.646484 81.716797 A 1.0001 1.0001 0 0 0 37.904297 80.048828 A 1.0001 1.0001 0 0 0 37.138672 80.402344 L 34.832031 83.046875 C 33.861237 82.164176 33.057031 81.232161 32.398438 80.287109 L 36.423828 76.025391 A 1.0001 1.0001 0 0 0 35.748047 74.328125 A 1.0001 1.0001 0 0 0 34.970703 74.650391 L 31.3125 78.521484 C 30.664244 77.294269 30.251267 76.135967 29.955078 75.091797 C 30.760198 74.414411 34.476613 71.287928 35.214844 70.660156 A 1.0001 1.0001 0 0 0 34.529297 68.890625 A 1.0001 1.0001 0 0 0 33.919922 69.136719 C 33.318716 69.647968 30.88297 71.697021 29.464844 72.890625 C 29.328833 71.979543 29.310547 71.388672 29.310547 71.388672 A 2.0002 2.0002 0 0 0 27.515625 69.410156 C 27.515625 69.410156 26.669183 69.327836 25.580078 68.667969 C 24.490973 68.008102 23.303373 66.912233 22.78125 64.4375 C 22.249029 61.914907 22.85247 61.054024 23.375 60.513672 C 23.897528 59.97332 24.414062 59.861328 24.414062 59.861328 A 2.0002 2.0002 0 0 0 25.28125 59.439453 L 27.164062 59.904297 A 1.0001 1.0001 0 1 0 27.644531 57.962891 L 26.003906 57.556641 L 26.005859 57.060547 L 28.332031 57.515625 A 1.0001232 1.0001232 0 1 0 28.716797 55.552734 L 26.5 55.119141 L 36.244141 55.109375 A 1.0001 1.0001 0 0 0 37.154297 55.109375 L 66.105469 55.082031 L 66.056641 56.09375 A 1.0002642 1.0002642 0 1 0 68.054688 56.193359 L 68.109375 55.080078 L 69.289062 55.078125 L 69.152344 56.427734 A 1.0001877 1.0001877 0 1 0 71.142578 56.628906 L 71.298828 55.078125 L 74.546875 55.074219 z M 41.103516 59.210938 A 2.664 2.664 0 1 0 41.103516 64.537109 A 2.664 2.664 0 1 0 41.103516 59.210938 z M 59.828125 59.355469 C 58.375125 59.355469 57.197266 60.533328 57.197266 61.986328 C 57.197266 63.439328 58.375125 64.619141 59.828125 64.619141 C 61.281125 64.619141 62.460938 63.439328 62.460938 61.986328 C 62.460938 60.533328 61.281125 59.355469 59.828125 59.355469 z M 50.058594 76.136719 C 48.157545 76.176519 46.2632 76.399149 44.378906 76.775391 A 1.0008814 1.0008814 0 0 0 44.771484 78.738281 C 48.334897 78.026765 51.869388 77.899213 55.408203 78.566406 A 1.0001 1.0001 0 1 0 55.779297 76.601562 C 53.867704 76.241159 51.959642 76.096917 50.058594 76.136719 z"/></svg>